<?xml version="1.0" encoding="utf-8"?>
<!-- Generator: Adobe Illustrator 25.1.0, SVG Export Plug-In . SVG Version: 6.00 Build 0)  -->
<svg version="1.1" id="neihu" xmlns="http://www.w3.org/2000/svg" xmlns:xlink="http://www.w3.org/1999/xlink" x="0px" y="0px"
	 viewBox="0 0 512 512" style="enable-background:new 0 0 512 512;" xml:space="preserve">
<style type="text/css">
	.st0 {fill: #222222;}
	.st1 {fill: #f5f5f5;}
@media (prefers-color-scheme: dark) {
    .st0 {fill: #f5f5f5;}
	.st1 {fill: #222222;}}
</style>
<g>
	<path class="st0" d="M89.8,0h332.4C471.8,0,512,40.2,512,89.8v332.4c0,49.6-40.2,89.8-89.8,89.8H89.8C40.2,512,0,471.8,0,422.2
		V89.8C0,40.2,40.2,0,89.8,0z"/>
	<path class="st1" d="M182.29,205.06c10.36,9.61,15.62,23.63,15.62,41.68v74.65H183v-74.2c0-14.46-3.77-25.5-11.22-32.81s-18.38-11-32.46-11-25,3.67-32.34,10.91-11.11,18.31-11.11,32.92v74.2H80.87V246.74c0-18,5.21-32.06,15.49-41.68s24.69-14.45,42.91-14.45S172,195.47,182.29,205.06Zm68.49,139.81h7.43V167.13h-7.43ZM408.89,244.4,325.34,259l0-67.59H311.11l0,127.94,0,1.29,14.21,0v-48l83.55-16.13v64.17h14.46V191.37H408.91Z"/>
</g>
</svg>
